<svg width="189" height="40" viewBox="0 0 189 40" fill="none" xmlns="http://www.w3.org/2000/svg">
<path d="M28.668 9.46484C28.668 10.4688 28.2695 11.4297 27.5625 12.1445C25.9375 13.7852 24.3594 15.4922 22.6719 17.0742C22.2852 17.4297 21.668 17.418 21.3008 17.043L16.4375 12.1445C14.9648 10.6602 14.9648 8.26953 16.4375 6.78906C17.9219 5.29297 20.3398 5.29297 21.8242 6.78906L22 6.96875L22.1758 6.78906C22.8867 6.07031 23.8594 5.66797 24.8711 5.66797C25.8828 5.66797 26.8516 6.07031 27.5625 6.78906C28.2695 7.5 28.668 8.46484 28.668 9.46484Z" stroke="#00B37E" stroke-width="2.5" stroke-linejoin="round"/>
<path d="M32 32.332L38.375 25.9609C38.5625 25.7734 38.668 25.5195 38.668 25.2539V16.5C38.668 15.1211 37.5469 14 36.168 14C34.7852 14 33.668 15.1211 33.668 16.5V24" stroke="#00B37E" stroke-width="2.5" stroke-linecap="round" stroke-linejoin="round"/>
<path d="M32 25.668L33.4297 24.2383C33.582 24.0859 33.668 23.8789 33.668 23.6641C33.668 23.3594 33.4922 23.082 33.2188 22.9453L32.4805 22.5742C31.1992 21.9336 29.6484 22.1836 28.6328 23.1992L27.1445 24.6914C26.5195 25.3164 26.168 26.1641 26.168 27.0469V32.332" stroke="#00B37E" stroke-width="2.5" stroke-linecap="round" stroke-linejoin="round"/>
<path d="M12 32.332L5.625 25.9609C5.4375 25.7734 5.33203 25.5195 5.33203 25.2539V16.5C5.33203 15.1211 6.45312 14 7.83203 14C9.21484 14 10.332 15.1211 10.332 16.5V24" stroke="#00B37E" stroke-width="2.5" stroke-linecap="round" stroke-linejoin="round"/>
<path d="M12 25.668L10.5703 24.2383C10.418 24.0859 10.332 23.8789 10.332 23.6641C10.332 23.3594 10.5078 23.082 10.7813 22.9453L11.5195 22.5742C12.8008 21.9336 14.3516 22.1836 15.3672 23.1992L16.8555 24.6914C17.4805 25.3164 17.832 26.1641 17.832 27.0469V32.332" stroke="#00B37E" stroke-width="2.5" stroke-linecap="round" stroke-linejoin="round"/>
<path d="M67.1758 25.6748C67.1758 25.2432 67.1094 24.8558 66.9766 24.5127C66.8548 24.1585 66.6224 23.8376 66.2793 23.5498C65.9362 23.251 65.4548 22.9577 64.835 22.6699C64.2152 22.3822 63.4128 22.0833 62.4277 21.7734C61.332 21.4193 60.2917 21.0208 59.3066 20.5781C58.3327 20.1354 57.4694 19.6208 56.7168 19.0342C55.9753 18.4365 55.3887 17.7448 54.957 16.959C54.5365 16.1732 54.3262 15.2601 54.3262 14.2197C54.3262 13.2126 54.5475 12.2995 54.9902 11.4805C55.4329 10.6504 56.0527 9.94206 56.8496 9.35547C57.6465 8.75781 58.5872 8.2985 59.6719 7.97754C60.7676 7.65658 61.9684 7.49609 63.2744 7.49609C65.0563 7.49609 66.6113 7.81706 67.9395 8.45898C69.2676 9.10091 70.2969 9.98079 71.0273 11.0986C71.7689 12.2165 72.1396 13.4948 72.1396 14.9336H67.1924C67.1924 14.2253 67.043 13.6055 66.7441 13.0742C66.4564 12.5319 66.0137 12.1058 65.416 11.7959C64.8294 11.486 64.0879 11.3311 63.1914 11.3311C62.3281 11.3311 61.6087 11.4639 61.0332 11.7295C60.4577 11.984 60.026 12.3327 59.7383 12.7754C59.4505 13.207 59.3066 13.694 59.3066 14.2363C59.3066 14.6458 59.4062 15.0166 59.6055 15.3486C59.8158 15.6807 60.1257 15.9906 60.5352 16.2783C60.9447 16.5661 61.4482 16.8372 62.0459 17.0918C62.6436 17.3464 63.3353 17.5954 64.1211 17.8389C65.4382 18.2373 66.5947 18.6855 67.5908 19.1836C68.598 19.6816 69.4391 20.2406 70.1143 20.8604C70.7894 21.4801 71.2985 22.1829 71.6416 22.9688C71.9847 23.7546 72.1562 24.6455 72.1562 25.6416C72.1562 26.693 71.9515 27.6338 71.542 28.4639C71.1325 29.2939 70.5404 29.9967 69.7656 30.5723C68.9909 31.1478 68.0667 31.585 66.9932 31.8838C65.9196 32.1826 64.7188 32.332 63.3906 32.332C62.1953 32.332 61.0166 32.1771 59.8545 31.8672C58.6924 31.5462 57.6354 31.0648 56.6836 30.4229C55.7428 29.7809 54.9902 28.9619 54.4258 27.9658C53.8613 26.9697 53.5791 25.791 53.5791 24.4297H58.5762C58.5762 25.1823 58.6924 25.8187 58.9248 26.3389C59.1572 26.859 59.4837 27.2796 59.9043 27.6006C60.3359 27.9215 60.8451 28.154 61.4316 28.2979C62.0293 28.4417 62.6823 28.5137 63.3906 28.5137C64.2539 28.5137 64.9622 28.3919 65.5156 28.1484C66.0801 27.9049 66.4951 27.5674 66.7607 27.1357C67.0374 26.7041 67.1758 26.2171 67.1758 25.6748ZM74.4805 23.2012V22.8525C74.4805 21.5355 74.6686 20.3236 75.0449 19.2168C75.4212 18.099 75.9691 17.1305 76.6885 16.3115C77.4079 15.4925 78.2933 14.8561 79.3447 14.4023C80.3962 13.9375 81.6025 13.7051 82.9639 13.7051C84.3252 13.7051 85.5371 13.9375 86.5996 14.4023C87.6621 14.8561 88.5531 15.4925 89.2725 16.3115C90.0029 17.1305 90.5563 18.099 90.9326 19.2168C91.3089 20.3236 91.4971 21.5355 91.4971 22.8525V23.2012C91.4971 24.5072 91.3089 25.7191 90.9326 26.8369C90.5563 27.9437 90.0029 28.9121 89.2725 29.7422C88.5531 30.5612 87.6676 31.1976 86.6162 31.6514C85.5648 32.1051 84.3584 32.332 82.9971 32.332C81.6357 32.332 80.4238 32.1051 79.3613 31.6514C78.3099 31.1976 77.4189 30.5612 76.6885 29.7422C75.9691 28.9121 75.4212 27.9437 75.0449 26.8369C74.6686 25.7191 74.4805 24.5072 74.4805 23.2012ZM79.2617 22.8525V23.2012C79.2617 23.9538 79.3281 24.6566 79.4609 25.3096C79.5938 25.9626 79.804 26.5381 80.0918 27.0361C80.3906 27.5231 80.778 27.9049 81.2539 28.1816C81.7298 28.4583 82.3109 28.5967 82.9971 28.5967C83.6611 28.5967 84.2311 28.4583 84.707 28.1816C85.1829 27.9049 85.5648 27.5231 85.8525 27.0361C86.1403 26.5381 86.3506 25.9626 86.4834 25.3096C86.6273 24.6566 86.6992 23.9538 86.6992 23.2012V22.8525C86.6992 22.1221 86.6273 21.4359 86.4834 20.7939C86.3506 20.141 86.1348 19.5654 85.8359 19.0674C85.5482 18.5583 85.1663 18.1598 84.6904 17.8721C84.2145 17.5843 83.639 17.4404 82.9639 17.4404C82.2887 17.4404 81.7132 17.5843 81.2373 17.8721C80.7725 18.1598 80.3906 18.5583 80.0918 19.0674C79.804 19.5654 79.5938 20.141 79.4609 20.7939C79.3281 21.4359 79.2617 22.1221 79.2617 22.8525ZM99.4824 6.5V32H94.6846V6.5H99.4824ZM108.48 14.0371V32H103.683V14.0371H108.48ZM103.384 9.35547C103.384 8.6582 103.627 8.08268 104.114 7.62891C104.601 7.17513 105.254 6.94824 106.073 6.94824C106.881 6.94824 107.529 7.17513 108.016 7.62891C108.514 8.08268 108.763 8.6582 108.763 9.35547C108.763 10.0527 108.514 10.6283 108.016 11.082C107.529 11.5358 106.881 11.7627 106.073 11.7627C105.254 11.7627 104.601 11.5358 104.114 11.082C103.627 10.6283 103.384 10.0527 103.384 9.35547ZM123.04 28.082V6.5H127.854V32H123.521L123.04 28.082ZM111.685 23.2344V22.8857C111.685 21.5133 111.84 20.2682 112.149 19.1504C112.459 18.0215 112.913 17.0531 113.511 16.2451C114.108 15.4372 114.844 14.8118 115.719 14.3691C116.593 13.9264 117.589 13.7051 118.707 13.7051C119.758 13.7051 120.677 13.9264 121.463 14.3691C122.26 14.8118 122.935 15.4427 123.488 16.2617C124.053 17.0697 124.507 18.027 124.85 19.1338C125.193 20.2295 125.442 21.4303 125.597 22.7363V23.5C125.442 24.7507 125.193 25.9128 124.85 26.9863C124.507 28.0599 124.053 29.0007 123.488 29.8086C122.935 30.6055 122.26 31.2253 121.463 31.668C120.666 32.1107 119.736 32.332 118.674 32.332C117.556 32.332 116.56 32.1051 115.686 31.6514C114.822 31.1976 114.092 30.5612 113.494 29.7422C112.908 28.9232 112.459 27.9603 112.149 26.8535C111.84 25.7467 111.685 24.5404 111.685 23.2344ZM116.466 22.8857V23.2344C116.466 23.9759 116.521 24.6676 116.632 25.3096C116.754 25.9515 116.947 26.5215 117.213 27.0195C117.49 27.5065 117.844 27.8883 118.275 28.165C118.718 28.4307 119.255 28.5635 119.886 28.5635C120.705 28.5635 121.38 28.3809 121.911 28.0156C122.442 27.6393 122.846 27.1247 123.123 26.4717C123.411 25.8187 123.577 25.0661 123.621 24.2139V22.0391C123.588 21.3418 123.488 20.7165 123.322 20.1631C123.167 19.5986 122.935 19.1172 122.625 18.7188C122.326 18.3203 121.95 18.0104 121.496 17.7891C121.053 17.5677 120.528 17.457 119.919 17.457C119.299 17.457 118.768 17.6009 118.325 17.8887C117.882 18.1654 117.523 18.5472 117.246 19.0342C116.98 19.5212 116.781 20.0967 116.648 20.7607C116.527 21.4137 116.466 22.1221 116.466 22.8857ZM141.285 27.9492V19.9473C141.285 19.3717 141.191 18.8792 141.003 18.4697C140.815 18.0492 140.521 17.7227 140.123 17.4902C139.736 17.2578 139.232 17.1416 138.612 17.1416C138.081 17.1416 137.622 17.2357 137.234 17.4238C136.847 17.6009 136.548 17.861 136.338 18.2041C136.128 18.5361 136.022 18.929 136.022 19.3828H131.241C131.241 18.6191 131.418 17.8942 131.772 17.208C132.127 16.5218 132.641 15.9186 133.316 15.3984C133.992 14.8672 134.794 14.4521 135.724 14.1533C136.664 13.8545 137.716 13.7051 138.878 13.7051C140.272 13.7051 141.512 13.9375 142.597 14.4023C143.681 14.8672 144.534 15.5645 145.153 16.4941C145.784 17.4238 146.1 18.5859 146.1 19.9805V27.667C146.1 28.652 146.16 29.46 146.282 30.0908C146.404 30.7106 146.581 31.2529 146.813 31.7178V32H141.982C141.75 31.513 141.573 30.9043 141.451 30.1738C141.34 29.4323 141.285 28.6908 141.285 27.9492ZM141.916 21.0596L141.949 23.7656H139.276C138.646 23.7656 138.098 23.8376 137.633 23.9814C137.168 24.1253 136.786 24.3301 136.487 24.5957C136.188 24.8503 135.967 25.1491 135.823 25.4922C135.69 25.8353 135.624 26.2116 135.624 26.6211C135.624 27.0306 135.718 27.4014 135.906 27.7334C136.094 28.0544 136.366 28.3089 136.72 28.4971C137.074 28.6742 137.489 28.7627 137.965 28.7627C138.684 28.7627 139.31 28.6188 139.841 28.3311C140.372 28.0433 140.782 27.6891 141.069 27.2686C141.368 26.848 141.523 26.4495 141.534 26.0732L142.796 28.0986C142.619 28.5524 142.375 29.0228 142.065 29.5098C141.767 29.9967 141.385 30.4561 140.92 30.8877C140.455 31.3083 139.896 31.6569 139.243 31.9336C138.59 32.1992 137.815 32.332 136.919 32.332C135.779 32.332 134.744 32.1051 133.814 31.6514C132.896 31.1865 132.165 30.5501 131.623 29.7422C131.092 28.9232 130.826 27.9935 130.826 26.9531C130.826 26.0124 131.003 25.1768 131.357 24.4463C131.712 23.7158 132.232 23.1016 132.918 22.6035C133.615 22.0944 134.484 21.7126 135.524 21.458C136.565 21.1924 137.771 21.0596 139.144 21.0596H141.916ZM136.587 11.6133L139.841 6.5H145.037L140.472 11.6133H136.587ZM154.566 17.9551V32H149.785V14.0371H154.284L154.566 17.9551ZM159.979 13.9209L159.896 18.3535C159.663 18.3203 159.381 18.2926 159.049 18.2705C158.728 18.2373 158.435 18.2207 158.169 18.2207C157.494 18.2207 156.907 18.3092 156.409 18.4863C155.922 18.6523 155.513 18.9014 155.181 19.2334C154.86 19.5654 154.616 19.9694 154.45 20.4453C154.295 20.9212 154.207 21.4635 154.185 22.0723L153.222 21.7734C153.222 20.6113 153.338 19.5433 153.57 18.5693C153.803 17.5843 154.14 16.7266 154.583 15.9961C155.037 15.2656 155.59 14.7012 156.243 14.3027C156.896 13.9043 157.643 13.7051 158.484 13.7051C158.75 13.7051 159.021 13.7272 159.298 13.7715C159.575 13.8047 159.801 13.8545 159.979 13.9209ZM167.283 14.0371V32H162.485V14.0371H167.283ZM162.187 9.35547C162.187 8.6582 162.43 8.08268 162.917 7.62891C163.404 7.17513 164.057 6.94824 164.876 6.94824C165.684 6.94824 166.331 7.17513 166.818 7.62891C167.316 8.08268 167.565 8.6582 167.565 9.35547C167.565 10.0527 167.316 10.6283 166.818 11.082C166.331 11.5358 165.684 11.7627 164.876 11.7627C164.057 11.7627 163.404 11.5358 162.917 11.082C162.43 10.6283 162.187 10.0527 162.187 9.35547ZM170.471 23.2012V22.8525C170.471 21.5355 170.659 20.3236 171.035 19.2168C171.411 18.099 171.959 17.1305 172.679 16.3115C173.398 15.4925 174.284 14.8561 175.335 14.4023C176.386 13.9375 177.593 13.7051 178.954 13.7051C180.315 13.7051 181.527 13.9375 182.59 14.4023C183.652 14.8561 184.543 15.4925 185.263 16.3115C185.993 17.1305 186.547 18.099 186.923 19.2168C187.299 20.3236 187.487 21.5355 187.487 22.8525V23.2012C187.487 24.5072 187.299 25.7191 186.923 26.8369C186.547 27.9437 185.993 28.9121 185.263 29.7422C184.543 30.5612 183.658 31.1976 182.606 31.6514C181.555 32.1051 180.349 32.332 178.987 32.332C177.626 32.332 176.414 32.1051 175.352 31.6514C174.3 31.1976 173.409 30.5612 172.679 29.7422C171.959 28.9121 171.411 27.9437 171.035 26.8369C170.659 25.7191 170.471 24.5072 170.471 23.2012ZM175.252 22.8525V23.2012C175.252 23.9538 175.318 24.6566 175.451 25.3096C175.584 25.9626 175.794 26.5381 176.082 27.0361C176.381 27.5231 176.768 27.9049 177.244 28.1816C177.72 28.4583 178.301 28.5967 178.987 28.5967C179.651 28.5967 180.221 28.4583 180.697 28.1816C181.173 27.9049 181.555 27.5231 181.843 27.0361C182.131 26.5381 182.341 25.9626 182.474 25.3096C182.618 24.6566 182.689 23.9538 182.689 23.2012V22.8525C182.689 22.1221 182.618 21.4359 182.474 20.7939C182.341 20.141 182.125 19.5654 181.826 19.0674C181.538 18.5583 181.157 18.1598 180.681 17.8721C180.205 17.5843 179.629 17.4404 178.954 17.4404C178.279 17.4404 177.703 17.5843 177.228 17.8721C176.763 18.1598 176.381 18.5583 176.082 19.0674C175.794 19.5654 175.584 20.141 175.451 20.7939C175.318 21.4359 175.252 22.1221 175.252 22.8525Z" fill="white"/>
</svg>
